<svg width="134" height="260" viewBox="0 0 134 260" fill="none" xmlns="http://www.w3.org/2000/svg">
<path d="M31.8061 15.8746C31.8061 13.1392 32.9421 10.4039 35.1541 8.44152C39.2794 4.77452 45.5967 5.13131 49.2835 9.23438L68.136 30.2254L95.6574 2.9113C99.5634 -0.973731 105.901 -0.973731 109.807 2.93112C113.713 6.81615 113.713 13.1194 109.787 17.0044L74.7722 51.7715C72.8192 53.714 70.1687 54.7646 67.4186 54.6853C64.6684 54.606 62.0777 53.3969 60.2443 51.3552L34.357 22.495C32.6431 20.5921 31.8061 18.2334 31.8061 15.8746Z" fill="#791D63"/>
<path d="M-6.29259e-07 35.1416C-5.38499e-07 32.5847 0.976504 30.0476 2.92951 28.1051C6.83552 24.2202 13.1728 24.2202 17.0788 28.1051L66.9801 77.7374L116.901 28.1051C120.807 24.2202 127.145 24.2202 131.051 28.1051C134.957 31.9901 134.957 38.2932 131.051 42.1782L74.0747 98.847C72.2014 100.71 69.6505 101.761 67 101.761C64.3495 101.761 61.7986 100.71 59.9253 98.847L2.94943 42.1782C0.976493 40.2357 -7.20019e-07 37.6986 -6.29259e-07 35.1416Z" fill="#791D63"/>
<path d="M31.8061 173.537C31.8061 170.802 32.9421 168.066 35.1541 166.104C39.2794 162.437 45.5967 162.794 49.2835 166.897L68.136 187.888L95.6574 160.573C99.5634 156.688 105.901 156.688 109.807 160.593C113.713 164.478 113.713 170.782 109.787 174.667L74.7722 209.435C72.8192 211.377 70.1687 212.428 67.4186 212.348C64.6684 212.269 62.0777 211.06 60.2443 209.018L34.357 180.158C32.6431 178.255 31.8061 175.896 31.8061 173.537Z" fill="#791D63"/>
<path d="M-6.31827e-07 192.804C-5.40407e-07 190.247 0.976504 187.71 2.92951 185.767C6.83552 181.882 13.1728 181.882 17.0788 185.767L66.9801 235.4L116.901 185.767C120.807 181.882 127.145 181.882 131.051 185.767C134.957 189.652 134.957 195.956 131.051 199.841L74.0747 256.51C72.2014 258.373 69.6505 259.424 67 259.424C64.3495 259.424 61.7986 258.373 59.9253 256.51L2.94943 199.841C0.976493 197.898 -7.23247e-07 195.361 -6.31827e-07 192.804Z" fill="#791D63"/>
</svg>
