<svg width="55" height="55" viewBox="0 0 55 55" fill="none" xmlns="http://www.w3.org/2000/svg">
<path d="M27.5 54.6909C12.511 54.6909 0.308983 42.4889 0.308983 27.5138C0.308983 12.5247 12.511 0.322754 27.5 0.322754C42.489 0.322754 54.6772 12.5247 54.6772 27.5138C54.691 42.4889 42.489 54.6909 27.5 54.6909ZM27.5 7.32503C16.3796 7.32503 7.32512 16.3795 7.32512 27.4999C7.32512 38.6204 16.3796 47.6748 27.5 47.6748C38.6204 47.6748 47.6749 38.6342 47.6749 27.4999C47.6749 16.3656 38.6204 7.32503 27.5 7.32503Z" fill="url(#paint0_linear)"/>
<path d="M27.5 47.5363C38.5657 47.5363 47.5362 38.5658 47.5362 27.5001C47.5362 16.4344 38.5657 7.46387 27.5 7.46387C16.4343 7.46387 7.46378 16.4344 7.46378 27.5001C7.46378 38.5658 16.4343 47.5363 27.5 47.5363Z" fill="url(#paint1_linear)"/>
<path d="M27.5 47.6473C16.3934 47.6473 7.35286 38.6068 7.35286 27.5002C7.35286 16.3936 16.3934 7.35303 27.5 7.35303C38.6066 7.35303 47.6471 16.3936 47.6471 27.5002C47.6471 38.6068 38.6066 47.6473 27.5 47.6473ZM27.5 7.53328C16.4905 7.53328 7.53311 16.4907 7.53311 27.5002C7.53311 38.5097 16.4905 47.4671 27.5 47.4671C38.5095 47.4671 47.4669 38.5097 47.4669 27.5002C47.4669 16.4907 38.5095 7.53328 27.5 7.53328Z" fill="url(#paint2_linear)"/>
<path d="M23.3125 28.4428V40.0486C23.3125 40.215 23.4512 40.3536 23.6175 40.3536H27.9298C28.0962 40.3536 28.2349 40.215 28.2349 40.0486V28.2487H31.3547C31.5072 28.2487 31.6459 28.1239 31.6598 27.9714L31.9648 24.4217C31.9787 24.2415 31.84 24.0889 31.6598 24.0889H28.2349V21.5653C28.2349 20.9691 28.7202 20.4977 29.3026 20.4977H31.7152C31.8816 20.4977 32.0203 20.359 32.0203 20.1926V16.6429C32.0203 16.4765 31.8816 16.3379 31.7152 16.3379H27.6525C25.2676 16.3379 23.3264 18.2791 23.3264 20.664V24.0889H21.1772C21.0108 24.0889 20.8721 24.2276 20.8721 24.394V27.9436C20.8721 28.11 21.0108 28.2487 21.1772 28.2487H23.3264V28.4428H23.3125Z" fill="white"/>
<defs>
<linearGradient id="paint0_linear" x1="8.28783" y1="8.28774" x2="46.7134" y2="46.7133" gradientUnits="userSpaceOnUse">
<stop stop-color="#282828"/>
<stop offset="0.4045" stop-color="#1C1C1C"/>
<stop offset="1" stop-color="#0F0F0F"/>
</linearGradient>
<linearGradient id="paint1_linear" x1="13.3332" y1="13.3333" x2="41.6679" y2="41.668" gradientUnits="userSpaceOnUse">
<stop stop-color="#383838"/>
<stop offset="0.5" stop-color="#262626"/>
<stop offset="1" stop-color="#191919"/>
</linearGradient>
<linearGradient id="paint2_linear" x1="13.2624" y1="13.2625" x2="41.7387" y2="41.7389" gradientUnits="userSpaceOnUse">
<stop stop-color="#666666"/>
<stop offset="0.3181" stop-color="#494949"/>
<stop offset="0.7611" stop-color="#262626"/>
<stop offset="1" stop-color="#191919"/>
</linearGradient>
</defs>
</svg>
