<svg width="55" height="55" viewBox="0 0 55 55" fill="none" xmlns="http://www.w3.org/2000/svg">
<path d="M27.5 54.6909C12.511 54.6909 0.308983 42.4889 0.308983 27.5138C0.308983 12.5247 12.511 0.322754 27.5 0.322754C42.489 0.322754 54.6772 12.5247 54.6772 27.5138C54.691 42.4889 42.489 54.6909 27.5 54.6909ZM27.5 7.32503C16.3796 7.32503 7.32512 16.3795 7.32512 27.4999C7.32512 38.6204 16.3796 47.6748 27.5 47.6748C38.6204 47.6748 47.6749 38.6342 47.6749 27.4999C47.6749 16.3656 38.6204 7.32503 27.5 7.32503Z" fill="url(#paint0_linear)"/>
<path d="M27.5 47.5363C38.5657 47.5363 47.5362 38.5658 47.5362 27.5001C47.5362 16.4344 38.5657 7.46387 27.5 7.46387C16.4343 7.46387 7.46378 16.4344 7.46378 27.5001C7.46378 38.5658 16.4343 47.5363 27.5 47.5363Z" fill="url(#paint1_linear)"/>
<path d="M27.5 47.6473C16.3934 47.6473 7.35286 38.6068 7.35286 27.5002C7.35286 16.3936 16.3934 7.35303 27.5 7.35303C38.6066 7.35303 47.6471 16.3936 47.6471 27.5002C47.6471 38.6068 38.6066 47.6473 27.5 47.6473ZM27.5 7.53328C16.4905 7.53328 7.53311 16.4907 7.53311 27.5002C7.53311 38.5097 16.4905 47.4671 27.5 47.4671C38.5095 47.4671 47.4669 38.5097 47.4669 27.5002C47.4669 16.4907 38.5095 7.53328 27.5 7.53328Z" fill="url(#paint2_linear)"/>
<path d="M34.8767 21.6072C34.8767 22.356 34.2666 22.9522 33.5317 22.9522C32.7829 22.9522 32.1867 22.3421 32.1867 21.6072C32.1867 20.8584 32.7968 20.2622 33.5317 20.2622C34.2804 20.2622 34.8767 20.8584 34.8767 21.6072Z" fill="white"/>
<path d="M27.5416 21.9814C24.4218 21.9814 21.8843 24.5189 21.8843 27.6387C21.8843 30.7586 24.4218 33.296 27.5416 33.296C30.6614 33.296 33.1989 30.7586 33.1989 27.6387C33.1989 24.5189 30.6614 21.9814 27.5416 21.9814ZM27.5416 31.2716C25.5449 31.2716 23.9087 29.6493 23.9087 27.6387C23.9087 25.642 25.531 24.0059 27.5416 24.0059C29.5383 24.0059 31.1745 25.6282 31.1745 27.6387C31.1606 29.6493 29.5383 31.2716 27.5416 31.2716Z" fill="white"/>
<path d="M32.0619 16.0332H22.952C19.1389 16.0332 16.0468 19.1253 16.0468 22.9384V32.0483C16.0468 35.8614 19.1389 38.9535 22.952 38.9535H32.0619C35.875 38.9535 38.9671 35.8614 38.9671 32.0483V22.9384C38.9671 19.1253 35.875 16.0332 32.0619 16.0332ZM36.804 32.0622C36.804 34.6828 34.6825 36.8043 32.0619 36.8043H22.952C20.3313 36.8043 18.2099 34.6828 18.2099 32.0622V22.9523C18.2099 20.3316 20.3313 18.2101 22.952 18.2101H32.0619C34.6825 18.2101 36.804 20.3316 36.804 22.9523V32.0622Z" fill="white"/>
<defs>
<linearGradient id="paint0_linear" x1="8.28783" y1="8.28774" x2="46.7134" y2="46.7133" gradientUnits="userSpaceOnUse">
<stop stop-color="#282828"/>
<stop offset="0.4045" stop-color="#1C1C1C"/>
<stop offset="1" stop-color="#0F0F0F"/>
</linearGradient>
<linearGradient id="paint1_linear" x1="13.3332" y1="13.3333" x2="41.6679" y2="41.668" gradientUnits="userSpaceOnUse">
<stop stop-color="#383838"/>
<stop offset="0.5" stop-color="#262626"/>
<stop offset="1" stop-color="#191919"/>
</linearGradient>
<linearGradient id="paint2_linear" x1="13.2624" y1="13.2625" x2="41.7387" y2="41.7389" gradientUnits="userSpaceOnUse">
<stop stop-color="#666666"/>
<stop offset="0.3181" stop-color="#494949"/>
<stop offset="0.7611" stop-color="#262626"/>
<stop offset="1" stop-color="#191919"/>
</linearGradient>
</defs>
</svg>
